# xmcd
#
# Track frame offsets: 
#        150
#        20695
#        40165
#        56308
#        68068
#        88078
#        101443
#        118235
#        134205
#        150718
#        166118
#        183518
#        201045
#        216518
#        233565
#        246440
#        265853
#        277278
#        298860
#        315823
#
# Disc length: 4431 seconds
#
# Revision: 13
# Processed by: cddbd v1.5.2PL0 Copyright (c) Steve Scherf et al.
# Submitted via: ExactAudioCopyFreeDBPlugin 1.0
#
DISCID=2d114d14
DTITLE=Garth Brooks - The Hits
DYEAR=1994
DGENRE=Country
TTITLE0=Ain't Going Down (Til The Sun Comes Up)
TTITLE1=Friends In Low Places
TTITLE2=Burning Bridges
TTITLE3=Callin' Baton Rouge
TTITLE4=The River
TTITLE5=Much Too Young (To Feel This Damn Old)
TTITLE6=The Thunder Rolls
TTITLE7=American Honky-Tonk Bar Association
TTITLE8=If Tomorrow Never Comes
TTITLE9=Unanswered Prayers
TTITLE10=Standing Outside The Fire
TTITLE11=Rodeo
TTITLE12=What She's Doing Now
TTITLE13=We Shall Be Free
TTITLE14=Papa Loved Mama
TTITLE15=Shameless
TTITLE16=Two Of A Kind, Workin' On A Full House
TTITLE17=That Summer
TTITLE18=The Red Strokes
TTITLE19=The Dance
EXTD=YEAR: 1994
EXTT0=
EXTT1=
EXTT2=
EXTT3=
EXTT4=
EXTT5=
EXTT6=
EXTT7=
EXTT8=
EXTT9=
EXTT10=
EXTT11=
EXTT12=
EXTT13=
EXTT14=
EXTT15=
EXTT16=
EXTT17=
EXTT18=
EXTT19=
PLAYORDER=
